<?xml version="1.0" encoding="UTF-8" standalone="no"?>
<!-- Created with Inkscape (http://www.inkscape.org/) -->

<svg
   xmlns:dc="http://purl.org/dc/elements/1.1/"
   xmlns:cc="http://creativecommons.org/ns#"
   xmlns:rdf="http://www.w3.org/1999/02/22-rdf-syntax-ns#"
   xmlns:svg="http://www.w3.org/2000/svg"
   xmlns="http://www.w3.org/2000/svg"
   xmlns:sodipodi="http://sodipodi.sourceforge.net/DTD/sodipodi-0.dtd"
   xmlns:inkscape="http://www.inkscape.org/namespaces/inkscape"
   width="1171.3333"
   height="165.47914"
   id="svg3016"
   version="1.1"
   inkscape:version="0.48.4 r9939"
   sodipodi:docname="Neues Dokument 2">
  <defs
     id="defs3018" />
  <sodipodi:namedview
     id="base"
     pagecolor="#ffffff"
     bordercolor="#666666"
     borderopacity="1.0"
     inkscape:pageopacity="0.0"
     inkscape:pageshadow="2"
     inkscape:zoom="0.35"
     inkscape:cx="585.6666"
     inkscape:cy="82.739567"
     inkscape:document-units="px"
     inkscape:current-layer="layer1"
     showgrid="false"
     fit-margin-top="0"
     fit-margin-left="0"
     fit-margin-right="0"
     fit-margin-bottom="0"
     borderlayer="true"
     inkscape:showpageshadow="false"
     inkscape:window-width="1920"
     inkscape:window-height="1005"
     inkscape:window-x="-9"
     inkscape:window-y="-9"
     inkscape:window-maximized="1" />
  <metadata
     id="metadata3021">
    <rdf:RDF>
      <cc:Work
         rdf:about="">
        <dc:format>image/svg+xml</dc:format>
        <dc:type
           rdf:resource="http://purl.org/dc/dcmitype/StillImage" />
        <dc:title></dc:title>
      </cc:Work>
    </rdf:RDF>
  </metadata>
  <g
     inkscape:label="Ebene 1"
     inkscape:groupmode="layer"
     id="layer1"
     transform="translate(235.6666,-449.62261)">
    <path
       inkscape:connector-curvature="0"
       id="path3778"
       style="font-size:19.87064552px;font-style:normal;font-variant:normal;font-weight:bold;font-stretch:normal;line-height:125%;letter-spacing:0px;word-spacing:0px;fill:#4d8bd2;fill-opacity:1;stroke:none;font-family:Aller;-inkscape-font-specification:Aller Bold"
       d="m -206.94391,562.74014 c -8.24825,-2.3553 -14.69287,-5.85236 -19.33387,-10.4912 -4.64104,-4.63872 -6.96157,-11.59913 -6.96155,-20.88126 -2e-5,-11.19232 4.01397,-19.95521 12.04196,-26.28869 8.02793,-6.33326 18.96412,-9.49995 32.8086,-9.50006 5.74447,1.1e-4 11.41484,0.51478 17.01111,1.54401 5.59614,1.02946 11.2665,2.57572 17.01113,4.63878 -0.29226,3.8298 -1.02718,7.8067 -2.20478,11.93071 -1.17776,4.12421 -2.57793,7.73252 -4.20052,10.82495 -3.53311,-1.46976 -7.43584,-2.75756 -11.70821,-3.8634 -4.27251,-1.10567 -8.76408,-1.65854 -13.47472,-1.65864 -5.01192,10e-5 -8.9169,0.77322 -11.71495,2.31939 -2.79814,1.54635 -4.1972,4.01408 -4.19716,7.40318 -4e-5,3.24093 0.99447,5.52436 2.98353,6.85029 1.98896,1.32609 4.82415,2.57793 8.50555,3.75553 l 12.59484,3.75553 c 4.1218,1.17774 7.84023,2.61387 11.15533,4.3084 3.31494,1.69466 6.15125,3.79379 8.50893,6.29742 2.3575,2.50374 4.19819,5.59625 5.52204,9.27756 1.32366,3.68141 1.98554,8.1741 1.98564,13.47809 -1e-4,5.44791 -1.14068,10.52831 -3.42178,15.24124 -2.28127,4.71296 -5.59516,8.79999 -9.94169,12.26108 -4.34668,3.46111 -9.61251,6.18617 -15.79748,8.17518 -6.1851,1.98901 -13.18148,2.98352 -20.98915,2.98352 -3.53306,0 -6.77279,-0.11013 -9.7192,-0.33038 -2.94646,-0.22025 -5.78277,-0.58771 -8.50892,-1.10238 -2.72621,-0.51467 -5.41418,-1.14059 -8.06393,-1.87776 -2.64979,-0.73717 -5.52093,-1.6946 -8.61344,-2.87227 0.29216,-3.97802 0.99113,-7.992 2.09689,-12.04196 1.10574,-4.04993 2.54188,-7.98974 4.30841,-11.81946 4.85901,1.91487 9.46183,3.35101 13.80847,4.30841 4.34658,0.95744 8.87522,1.43615 13.58596,1.43613 2.06314,2e-5 4.30949,-0.18427 6.73906,-0.55288 2.42946,-0.36856 4.6758,-1.03156 6.73904,-1.98901 2.06312,-0.9574 3.79367,-2.20924 5.19166,-3.75553 1.39786,-1.54623 2.09683,-3.5712 2.09689,-6.07491 -6e-5,-3.53749 -1.06761,-6.07938 -3.20265,-7.62568 -2.13515,-1.54622 -5.11754,-2.90818 -8.94718,-4.0859 z" />
    <path
       inkscape:connector-curvature="0"
       id="path3780"
       style="font-size:19.87064552px;font-style:normal;font-variant:normal;font-weight:bold;font-stretch:normal;line-height:125%;letter-spacing:0px;word-spacing:0px;fill:#4d8bd2;fill-opacity:1;stroke:none;font-family:Aller;-inkscape-font-specification:Aller Bold"
       d="m -50.54006,585.4958 c 1.76643,2.94871 3.23964,6.37385 4.41966,10.27544 1.17983,3.90163 1.76979,8.50445 1.76988,13.80847 -5.89296,2.35535 -11.41724,3.86453 -16.57285,4.52754 -5.15579,0.663 -10.53173,0.9945 -16.12786,0.9945 -9.5743,0 -17.89668,-1.50918 -24.96718,-4.52753 -7.07058,-3.01835 -12.92524,-7.17954 -17.564,-12.48359 -4.6388,-5.30401 -8.13698,-11.60142 -10.49457,-18.89225 -2.35761,-7.29076 -3.5364,-15.20635 -3.53639,-23.74679 -1e-5,-8.39649 1.1417,-16.20308 3.42514,-23.41978 2.28342,-7.21655 5.74565,-13.54992 10.38669,-19.00014 4.641,-5.45001 10.42262,-9.72133 17.34487,-12.81396 6.92217,-3.09241 14.94789,-4.63867 24.07718,-4.63878 3.24078,1.1e-4 6.2243,0.0732 8.95055,0.21913 2.72611,0.1462 5.34104,0.44062 7.84481,0.88325 2.50359,0.44287 5.00728,1.03283 7.51104,1.76989 2.5036,0.73728 5.3017,1.6947 8.39432,2.87227 -9e-5,3.3848 -0.44173,7.17628 -1.32489,11.37445 -0.88335,4.19838 -2.2824,8.21236 -4.19715,12.04196 -4.41862,-1.47425 -8.28539,-2.46876 -11.60033,-2.98352 -3.3151,-0.51458 -7.10771,-0.77191 -11.37783,-0.77201 -9.13378,1e-4 -16.02004,2.98249 -20.65877,8.94719 -4.63882,5.96487 -6.95821,14.47155 -6.95817,25.52005 -4e-5,11.92963 2.50364,20.61947 7.51105,26.06955 5.00732,5.45015 11.78344,8.17521 20.32839,8.17519 2.20695,2e-5 4.23192,-0.0371 6.07491,-0.11125 1.84286,-0.0741 3.64758,-0.25844 5.41417,-0.55288 1.76643,-0.2944 3.57003,-0.73603 5.41079,-1.32489 1.8406,-0.58881 4.01278,-1.32598 6.51654,-2.21151 z" />
    <path
       inkscape:connector-curvature="0"
       id="path3782"
       style="font-size:19.87064552px;font-style:normal;font-variant:normal;font-weight:bold;font-stretch:normal;line-height:125%;letter-spacing:0px;word-spacing:0px;fill:#4d8bd2;fill-opacity:1;stroke:none;font-family:Aller;-inkscape-font-specification:Aller Bold"
       d="m -24.33227,498.2287 c 5.29952,-0.88539 10.52714,-1.32814 15.68286,-1.32826 5.15567,1.2e-4 10.38554,0.44287 15.68961,1.32826 l 0,60.53342 c -5e-5,6.04125 0.47867,11.01378 1.43613,14.91759 0.95737,3.9039 2.4306,6.99642 4.41965,9.27757 1.98897,2.28121 4.45557,3.90051 7.39981,4.85791 2.94412,0.95745 6.40523,1.43616 10.38332,1.43614 5.44781,2e-5 10.01466,-0.51465 13.70059,-1.54402 l 0,-89.47861 c 5.29946,-0.88539 10.4529,-1.32814 15.46037,-1.32826 5.1556,1.2e-4 10.38545,0.44287 15.6896,1.32826 l 0,109.807 c -4.71531,1.61818 -10.93855,3.2004 -18.66976,4.74666 -7.73138,1.54626 -15.79531,2.31939 -24.19178,2.31939 -7.51112,0 -14.72775,-0.58884 -21.64991,-1.76651 -6.92225,-1.17768 -12.99828,-3.68136 -18.22812,-7.51105 -5.22989,-3.82969 -9.39109,-9.42701 -12.48359,-16.79199 -3.09253,-7.36494 -4.6388,-17.16054 -4.63878,-29.38683 z" />
    <path
       inkscape:connector-curvature="0"
       id="path3786"
       style="font-size:19.87064552px;font-style:normal;font-variant:normal;font-weight:bold;font-stretch:normal;line-height:125%;letter-spacing:0px;word-spacing:0px;fill:#4d8bd2;fill-opacity:1;stroke:none;font-family:Aller;-inkscape-font-specification:Aller Bold"
       d="m 291.40838,560.09037 c -1.76659,-0.29661 -3.68143,-0.55507 -5.74455,-0.77538 -2.06323,-0.2202 -3.90392,-0.33032 -5.52203,-0.33037 -7.21894,5e-5 -12.92751,1.28897 -17.12574,3.86677 -4.19832,2.5779 -6.29745,6.73909 -6.29742,12.48359 -3e-5,3.82972 0.81018,6.77503 2.43064,8.83593 1.62039,2.06096 3.57232,3.57014 5.85579,4.52754 2.28338,0.95744 4.71403,1.5474 7.29192,1.76988 2.5778,0.22252 4.82414,0.33377 6.73905,0.33375 2.20696,2e-5 4.41509,-0.18427 6.62442,-0.55288 2.20921,-0.36856 4.12517,-0.70118 5.74792,-0.99787 z m 0,-22.75565 c -7e-5,-3.53745 -0.58891,-6.41084 -1.76652,-8.62018 -1.17774,-2.20918 -2.79817,-3.93974 -4.86128,-5.19167 -2.06325,-1.25175 -4.60401,-2.09792 -7.6223,-2.53852 -3.01841,-0.44041 -6.37052,-0.66066 -10.05632,-0.66075 -7.9516,9e-5 -16.42007,1.54635 -25.40542,4.63878 -2.06321,-3.8296 -3.60946,-7.43791 -4.63879,-10.82495 -1.02935,-3.38684 -1.54402,-7.4379 -1.54401,-12.15321 6.47719,-2.2114 12.95665,-3.83182 19.43838,-4.86128 6.48167,-1.02923 12.52063,-1.5439 18.11688,-1.54401 15.3187,1.1e-4 27.28648,3.68259 35.90338,11.04745 8.6167,7.36506 12.92511,19.14742 12.92521,35.34712 l 0,66.27796 c -5.15581,1.62268 -11.41613,3.17006 -18.781,4.64215 -7.36505,1.47209 -15.68631,2.20814 -24.96381,2.20814 -7.51111,0 -14.39735,-0.663 -20.65877,-1.98901 -6.26148,-1.32601 -11.63744,-3.53527 -16.12786,-6.6278 -4.49047,-3.09251 -7.95157,-7.06941 -10.38331,-11.9307 -2.43178,-4.86126 -3.64766,-10.82493 -3.64766,-17.89101 0,-7.0705 1.5103,-12.99933 4.53091,-17.78649 3.02059,-4.78706 6.92444,-8.61675 11.71158,-11.48908 4.78708,-2.8722 10.12595,-4.93426 16.01661,-6.18617 5.89058,-1.25177 11.78233,-1.87769 17.67525,-1.87776 4.27013,7e-5 8.98307,0.22032 14.13885,0.66076 z" />
    <path
       inkscape:connector-curvature="0"
       id="path3788"
       style="font-size:19.87064552px;font-style:normal;font-variant:normal;font-weight:normal;font-stretch:normal;text-align:start;line-height:125%;letter-spacing:0px;word-spacing:0px;writing-mode:lr-tb;text-anchor:start;fill:#87cdf9;fill-opacity:1;stroke:none;font-family:Aller Light;-inkscape-font-specification:'Aller Light,'"
       d="m 341.44385,499.77271 c 0.88549,-0.14373 2.02833,-0.25273 3.42851,-0.32701 1.40017,-0.074 2.83517,-0.11113 4.30504,-0.11125 1.17765,1.2e-4 2.61379,0.0372 4.3084,0.11125 1.69457,0.0743 2.98462,0.18328 3.87015,0.32701 l 24.96042,95.89065 27.83944,-95.89065 c 1.17761,-0.14373 2.46652,-0.25273 3.86678,-0.32701 1.40009,-0.074 2.90927,-0.11113 4.52753,-0.11125 1.18209,1.2e-4 2.3991,1.2e-4 3.65102,0 1.25175,1.2e-4 2.46651,0.1462 3.64428,0.43826 l 27.83269,94.5624 24.96718,-94.5624 c 0.88536,-0.14373 1.95403,-0.25273 3.20601,-0.32701 1.2517,-0.074 2.46645,-0.11113 3.64429,-0.11125 1.17752,1.2e-4 2.50352,0.0372 3.97802,0.11125 1.47418,0.0743 2.65185,0.18328 3.53302,0.32701 l -32.47822,112.67927 c -2.65214,0.44051 -5.22998,0.66076 -7.73355,0.66076 -2.79597,0 -5.37157,-0.22025 -7.7268,-0.66076 l -27.1787,-93.23414 -28.50019,93.23414 c -2.65207,0.44051 -5.22991,0.66076 -7.73355,0.66076 -2.79591,0 -5.37375,-0.22025 -7.73355,-0.66076 z" />
    <path
       inkscape:connector-curvature="0"
       id="path3790"
       style="font-size:19.87064552px;font-style:normal;font-variant:normal;font-weight:normal;font-stretch:normal;text-align:start;line-height:125%;letter-spacing:0px;word-spacing:0px;writing-mode:lr-tb;text-anchor:start;fill:#87cdf9;fill-opacity:1;stroke:none;font-family:Aller Light;-inkscape-font-specification:'Aller Light,'"
       d="m 519.7336,450.06761 c 0.88099,-0.14817 2.09462,-0.25942 3.6409,-0.33375 1.54623,-0.074 2.76212,-0.11108 3.64765,-0.11125 0.73714,1.7e-4 1.91594,0.0372 3.5364,0.11125 1.62039,0.0743 2.87111,0.18558 3.75215,0.33375 l 0,69.81099 c 1.47431,-2.65192 3.39027,-5.3399 5.74791,-8.06393 2.35756,-2.72384 5.08261,-5.19043 8.17518,-7.39981 3.09248,-2.20915 6.58954,-3.97679 10.4912,-5.30291 3.90155,-1.32589 8.20996,-1.98889 12.92522,-1.98901 12.96333,1.2e-4 22.50047,3.86689 28.61145,11.60033 6.11075,7.73365 9.16615,18.59679 9.16625,32.58947 l 0,71.13924 c -0.8811,0.14834 -2.0947,0.25959 -3.6409,0.33375 -1.5463,0.0742 -2.7622,0.11125 -3.6475,0.11125 -0.7373,0 -1.91616,-0.0371 -3.53649,-0.11125 -1.62053,-0.0742 -2.87124,-0.18541 -3.75216,-0.33375 l 0,-66.72295 c -9e-5,-12.51835 -2.06214,-21.50261 -6.18616,-26.95282 -4.1242,-5.45002 -10.09011,-8.17508 -17.89775,-8.17518 -5.15577,1e-4 -9.97996,0.95753 -14.4726,2.87227 -4.49275,1.91495 -8.35952,4.75013 -11.60032,8.50556 -3.2409,3.75561 -5.78167,8.46856 -7.62231,14.13885 -1.84071,5.67044 -2.76105,12.18923 -2.76102,19.55638 l 0,56.77789 c -0.88104,0.14834 -2.09467,0.25959 -3.6409,0.33375 -1.54629,0.0742 -2.76217,0.11125 -3.64765,0.11125 -0.7372,0 -1.916,-0.0371 -3.53639,-0.11125 -1.62046,-0.0742 -2.87117,-0.18541 -3.75216,-0.33375 z" />
    <path
       inkscape:connector-curvature="0"
       id="path3792"
       style="font-size:19.87064552px;font-style:normal;font-variant:normal;font-weight:normal;font-stretch:normal;text-align:start;line-height:125%;letter-spacing:0px;word-spacing:0px;writing-mode:lr-tb;text-anchor:start;fill:#87cdf9;fill-opacity:1;stroke:none;font-family:Aller Light;-inkscape-font-specification:'Aller Light,'"
       d="m 655.44491,558.32386 c 0,15.02214 3.461,26.06846 10.3834,33.13898 6.9221,7.07056 17.3055,10.60583 31.1499,10.60582 5.5961,10e-6 10.7877,-0.4787 15.575,-1.43613 4.787,-0.95741 9.464,-2.24746 14.031,-3.87015 0.7371,1.62269 1.327,3.6117 1.7699,5.96704 0.4426,2.35536 0.7359,4.49045 0.8799,6.40529 -4.2703,1.91485 -9.2778,3.38807 -15.0222,4.41966 -5.7446,1.03159 -12.0038,1.54738 -18.7777,1.54738 -9.7225,0 -18.082,-1.43613 -25.0784,-4.3084 -6.9963,-2.87227 -12.7408,-6.88512 -17.2336,-12.03859 -4.4927,-5.15343 -7.8065,-11.30251 -9.9417,-18.44725 -2.135,-7.14468 -3.2027,-14.98947 -3.2026,-23.53441 -10e-5,-8.24815 0.9945,-15.98058 2.9835,-23.19728 1.989,-7.21655 5.0085,-13.54992 9.0585,-19.00013 4.0499,-5.45002 9.2415,-9.72134 15.575,-12.81397 6.3333,-3.09241 13.9185,-4.63866 22.7556,-4.63878 7.3672,1.2e-4 13.9219,1.25196 19.6643,3.75553 5.7422,2.50379 10.5653,6.00198 14.4692,10.49457 3.9038,4.49279 6.8502,9.86874 8.8393,16.12786 1.9889,6.25929 2.9834,13.0725 2.9835,20.43964 -10e-5,1.32607 -0.037,3.01954 -0.1112,5.08041 -0.074,2.06099 -0.1855,3.82862 -0.3338,5.30291 z m 66.278,-12.14983 c -10e-5,-4.5668 -0.5889,-9.05949 -1.7666,-13.4781 -1.1778,-4.41844 -3.0184,-8.28522 -5.522,-11.60033 -2.5037,-3.31492 -5.7446,-6.0029 -9.7225,-8.06393 -3.9782,-2.06083 -8.7652,-3.09129 -14.3614,-3.09139 -10.3115,1e-4 -18.3383,3.16678 -24.0805,9.50006 -5.7424,6.33346 -9.2046,15.24468 -10.3867,26.73369 z" />
    <path
       inkscape:connector-curvature="0"
       id="path3794"
       style="font-size:19.87064552px;font-style:normal;font-variant:normal;font-weight:normal;font-stretch:normal;text-align:start;line-height:125%;letter-spacing:0px;word-spacing:0px;writing-mode:lr-tb;text-anchor:start;fill:#87cdf9;fill-opacity:1;stroke:none;font-family:Aller Light;-inkscape-font-specification:'Aller Light,'"
       d="m 768.286,499.77271 c 1.1777,-0.14373 2.3183,-0.25273 3.4218,-0.32701 1.1035,-0.074 2.1722,-0.11113 3.206,-0.11125 1.1777,1.2e-4 2.2823,0.0372 3.314,0.11125 1.0315,0.0743 2.1361,0.18328 3.3138,0.32701 0.2921,2.65213 0.5124,5.78285 0.6608,9.39219 0.1483,3.60954 0.2224,6.88635 0.2225,9.83044 2.9441,-5.44777 7.0671,-10.04947 12.369,-13.8051 5.3017,-3.75541 12.2991,-5.63317 20.9925,-5.63329 0.7371,1.2e-4 1.5102,1.2e-4 2.3193,0 0.8091,1.2e-4 1.7283,0.072 2.7577,0.21576 0.4449,2.5038 0.6675,4.86139 0.6675,7.0728 0,2.35545 -0.2226,4.63888 -0.6675,6.85029 -1.1778,-0.14823 -2.0981,-0.2224 -2.7611,-0.2225 -0.663,10e-5 -1.3631,10e-5 -2.1002,0 -10.0148,10e-5 -18.0416,3.16679 -24.0805,9.50007 -6.039,6.33346 -9.0585,16.8651 -9.0585,31.59496 l 0,57.88365 c -0.881,0.14834 -2.0946,0.25959 -3.6409,0.33375 -1.5462,0.0742 -2.7621,0.11125 -3.6476,0.11125 -0.7372,0 -1.9161,-0.0371 -3.5365,-0.11125 -1.6204,-0.0742 -2.8711,-0.18541 -3.7521,-0.33375 z" />
    <path
       inkscape:connector-curvature="0"
       id="path3796"
       style="font-size:19.87064552px;font-style:normal;font-variant:normal;font-weight:normal;font-stretch:normal;text-align:start;line-height:125%;letter-spacing:0px;word-spacing:0px;writing-mode:lr-tb;text-anchor:start;fill:#87cdf9;fill-opacity:1;stroke:none;font-family:Aller Light;-inkscape-font-specification:'Aller Light,'"
       d="m 854.8047,558.32386 c 0,15.02214 3.4611,26.06846 10.3834,33.13898 6.9221,7.07056 17.3055,10.60583 31.15,10.60582 5.5961,10e-6 10.7877,-0.4787 15.575,-1.43613 4.7869,-0.95741 9.4639,-2.24746 14.0309,-3.87015 0.7371,1.62269 1.327,3.6117 1.7699,5.96704 0.4426,2.35536 0.7359,4.49045 0.8799,6.40529 -4.2703,1.91485 -9.2777,3.38807 -15.0221,4.41966 -5.7446,1.03159 -12.0039,1.54738 -18.7777,1.54738 -9.7225,0 -18.082,-1.43613 -25.0784,-4.3084 -6.9964,-2.87227 -12.7409,-6.88512 -17.2336,-12.03859 -4.4927,-5.15343 -7.8066,-11.30251 -9.9417,-18.44725 -2.1351,-7.14468 -3.2027,-14.98947 -3.2026,-23.53441 -1e-4,-8.24815 0.9945,-15.98058 2.9834,-23.19728 1.9891,-7.21655 5.0086,-13.54992 9.0585,-19.00013 4.05,-5.45002 9.2416,-9.72134 15.575,-12.81397 6.3333,-3.09241 13.9185,-4.63866 22.7556,-4.63878 7.3673,1.2e-4 13.9219,1.25196 19.6643,3.75553 5.7422,2.50379 10.5653,6.00198 14.4693,10.49457 3.9038,4.49279 6.8502,9.86874 8.8392,16.12786 1.989,6.25929 2.9835,13.0725 2.9836,20.43964 -10e-5,1.32607 -0.037,3.01954 -0.1112,5.08041 -0.074,2.06099 -0.1855,3.82862 -0.3338,5.30291 z m 66.278,-12.14983 c -1e-4,-4.5668 -0.5889,-9.05949 -1.7665,-13.4781 -1.1778,-4.41844 -3.0184,-8.28522 -5.5221,-11.60033 -2.5037,-3.31492 -5.7446,-6.0029 -9.7225,-8.06393 -3.9781,-2.06083 -8.7652,-3.09129 -14.3614,-3.09139 -10.3114,1e-4 -18.3383,3.16678 -24.0805,9.50006 -5.7423,6.33346 -9.2045,15.24468 -10.3867,26.73369 z" />
    <path
       inkscape:connector-curvature="0"
       id="path3004"
       style="font-size:204.91764832px;font-style:normal;font-variant:normal;font-weight:bold;font-stretch:normal;text-align:start;line-height:125%;letter-spacing:0px;word-spacing:0px;writing-mode:lr-tb;text-anchor:start;fill:#4d8bd2;fill-opacity:1;stroke:none;font-family:Aller;-inkscape-font-specification:Aller Bold"
       d="m 134.86087,450.73 c -2.6575,-0.44543 -5.27792,-0.74137 -7.86127,-0.88781 -2.58315,-0.14613 -5.12925,-0.21926 -7.63829,-0.21944 -2.50884,1.8e-4 -5.09097,0.0733 -7.7464,0.21944 -2.65523,0.14644 -5.31167,0.44238 -7.96937,0.88781 l 0,157.95784 c 6.93684,2.06596 13.98394,3.65143 21.14129,4.75643 7.15754,1.10499 15.82845,1.65748 26.01278,1.65748 7.82415,0 15.31605,-1.06898 22.4757,-3.20695 7.15975,-2.13797 13.46925,-5.52947 18.92853,-10.17449 5.45932,-4.64502 9.77676,-10.65496 12.95232,-18.02986 3.1756,-7.37484 4.76339,-16.37344 4.76338,-26.99583 10e-6,-8.40328 -1.36594,-16.32952 -4.09785,-23.77874 -2.73189,-7.44906 -6.64395,-13.90235 -11.73616,-19.35989 -5.09216,-5.45735 -11.25415,-9.77155 -18.48596,-12.9426 -7.23172,-3.17084 -15.2754,-4.75632 -24.13107,-4.75643 -2.65751,1.1e-4 -5.42544,0.11151 -8.30382,0.33419 -2.87822,0.22292 -5.64615,0.70115 -8.30381,1.43469 z m 0,71.01217 c 2.95496,-0.73807 5.35466,-1.21743 7.19912,-1.43807 1.84462,-0.22046 4.16775,-0.33073 6.9694,-0.33082 4.8738,9e-5 9.11804,0.99594 12.73275,2.98753 3.6148,1.99178 6.60346,4.64623 8.96595,7.96338 2.36259,3.31731 4.09677,7.22529 5.20256,11.72396 1.10586,4.49882 1.65877,9.18097 1.65873,14.04647 4e-5,6.04939 -0.73755,11.17601 -2.21277,15.37989 -1.47514,4.20397 -3.50435,7.55946 -6.08767,10.06648 -2.5832,2.50708 -5.64618,4.3131 -9.18893,5.41806 -3.54262,1.10503 -7.37922,1.65752 -11.5098,1.6575 -2.50888,2e-5 -4.79709,-0.11025 -6.86468,-0.33083 -2.06742,-0.22052 -4.35565,-0.69987 -6.86466,-1.43806 z" />
  </g>
</svg>
