<?xml version="1.0" encoding="UTF-8" standalone="no"?>
<svg id="svg3013" xmlns:rdf="http://www.w3.org/1999/02/22-rdf-syntax-ns#" xmlns="http://www.w3.org/2000/svg" height="40" width="283.28" version="1.1" xmlns:cc="http://creativecommons.org/ns#" xmlns:dc="http://purl.org/dc/elements/1.1/">
 <metadata id="metadata3018">
  <rdf:RDF>
   <cc:Work rdf:about="">
    <dc:format>image/svg+xml</dc:format>
    <dc:type rdf:resource="http://purl.org/dc/dcmitype/StillImage"/>
    <dc:title/>
   </cc:Work>
  </rdf:RDF>
 </metadata>
 <g id="layer1" transform="translate(-161.21473,-483.79073)">
  <path id="path3029" d="m168.18,511.09c-2.0013-0.57146-3.565-1.42-4.691-2.5455-1.1261-1.1255-1.6891-2.8143-1.6891-5.0665-0.00001-2.7156,0.97391-4.8418,2.9218-6.3785,1.9478-1.5366,4.6013-2.305,7.9604-2.305,1.3938,0.00002,2.7696,0.1249,4.1274,0.37462,1.3578,0.24978,2.7336,0.62496,4.1274,1.1255-0.0709,0.92924-0.24923,1.8942-0.53494,2.8948-0.28576,1.0007-0.6255,1.8762-1.0192,2.6265-0.85724-0.35661-1.8042-0.66908-2.8408-0.9374-1.0366-0.26826-2.1264-0.40239-3.2694-0.40242-1.216,0.00003-2.1635,0.1876-2.8424,0.56275-0.67891,0.3752-1.0184,0.97394-1.0184,1.7962-0.00002,0.78636,0.24128,1.3404,0.7239,1.6621,0.48258,0.32173,1.1705,0.62548,2.0637,0.9112l3.0559,0.91121c1.0001,0.28576,1.9023,0.63421,2.7066,1.0454,0.80432,0.41118,1.4925,0.92049,2.0645,1.528,0.572,0.60747,1.0186,1.3578,1.3398,2.251,0.32116,0.89324,0.48177,1.9833,0.48178,3.2702-0.00001,1.3218-0.27677,2.5545-0.83022,3.698-0.55351,1.1435-1.3576,2.1352-2.4122,2.9749-1.0546,0.83978-2.3323,1.501-3.833,1.9836s-3.1982,0.72389-5.0926,0.72389c-0.85723,0-1.6433-0.0267-2.3582-0.0801-0.71491-0.0535-1.4031-0.1426-2.0645-0.26747-0.66146-0.12491-1.3136-0.27675-1.9566-0.4556-0.64292-0.17887-1.3396-0.41117-2.0899-0.6969,0.0709-0.96521,0.24047-1.9391,0.50877-2.9218,0.26829-0.98264,0.61674-1.9386,1.0454-2.8678,1.179,0.4646,2.2957,0.81305,3.3504,1.0454,1.0546,0.23231,2.1534,0.34846,3.2964,0.34846,0.50057,0,1.0456-0.0448,1.6351-0.13415,0.58946-0.0894,1.1345-0.25029,1.6351-0.4826,0.50059-0.23229,0.92047-0.53603,1.2597-0.91121,0.33917-0.37516,0.50876-0.86648,0.50877-1.474-0.00001-0.85831-0.25903-1.475-0.77705-1.8502-0.51807-0.37515-1.2417-0.70561-2.1709-0.99135z" fill="#4d8bd2"/>
  <path id="path3031" d="m206.37,516.61c0.4286,0.71546,0.78604,1.5465,1.0724,2.4932,0.28625,0.94666,0.42941,2.0634,0.42942,3.3504-1.4298,0.57148-2.7702,0.93765-4.0211,1.0985-1.251,0.16086-2.5554,0.24129-3.9132,0.24129-2.323,0-4.3423-0.36616-6.0578-1.0985-1.7156-0.73234-3.1361-1.742-4.2616-3.0289s-1.9743-2.8149-2.5463-4.5839c-0.57203-1.769-0.85804-3.6896-0.85804-5.7617,0-2.0373,0.27702-3.9314,0.83105-5.6824s1.3941-3.2876,2.5202-4.61c1.126-1.3223,2.5288-2.3587,4.2084-3.1091,1.6795-0.75031,3.6268-1.1255,5.8419-1.1255,0.78632,0.00002,1.5102,0.0177,2.1717,0.0532,0.66144,0.0355,1.2959,0.10695,1.9034,0.2143,0.60745,0.10749,1.2149,0.2506,1.8224,0.42944,0.60744,0.17888,1.2864,0.41118,2.0367,0.6969-0.00002,0.82126-0.10721,1.7412-0.32145,2.7598-0.21434,1.0187-0.5538,1.9926-1.0184,2.9218-1.0721-0.3577-2.0103-0.59901-2.8146-0.72389-0.80434-0.1249-1.7246-0.18731-2.7606-0.18732-2.2161,0.00001-3.887,0.72365-5.0125,2.1709-1.1255,1.4473-1.6883,3.5112-1.6883,6.192,0,2.8945,0.60746,5.0029,1.8224,6.3253s2.859,1.9836,4.9323,1.9836c0.53546,0.00001,1.0268-0.009,1.474-0.0269,0.44713-0.018,0.88502-0.0627,1.3136-0.13415,0.4286-0.0715,0.86621-0.17858,1.3128-0.32146,0.44658-0.14286,0.97361-0.32172,1.5811-0.53658z" fill="#4d8bd2"/>
  <path id="path3033" d="m212.21,495.62c1.2736-0.21278,2.53-0.31918,3.7691-0.31921,1.2391,0.00003,2.496,0.10646,3.7707,0.31921v14.548c-0.00002,1.4519,0.11509,2.647,0.34515,3.5852,0.23009,0.93824,0.58416,1.6815,1.0622,2.2297,0.47802,0.54825,1.0708,0.93742,1.7784,1.1675,0.70756,0.2301,1.5394,0.34514,2.4954,0.34514,1.3093,0,2.4068-0.12371,3.2927-0.37108v-21.505c1.2736-0.21278,2.5122-0.31918,3.7156-0.31921,1.239,0.00003,2.496,0.10646,3.7707,0.31921v26.39c-1.1332,0.3889-2.6289,0.76916-4.4869,1.1408-1.8581,0.37162-3.7961,0.55741-5.8141,0.55741-1.8052,0-3.5396-0.14151-5.2032-0.42454s-3.1239-0.88475-4.3808-1.8052c-1.2569-0.92038-2.257-2.2656-3.0002-4.0356-0.74322-1.77-1.1148-4.1242-1.1148-7.0626z" fill="#4d8bd2"/>
  <path id="path3037" d="m288.8,510.44c-0.42969-0.072-0.89543-0.13468-1.3972-0.18814-0.50184-0.0535-0.94954-0.0801-1.3431-0.0801-1.7558,0.00001-3.1443,0.31276-4.1654,0.9382-1.0211,0.62549-1.5317,1.6351-1.5317,3.0289-0.00001,0.92922,0.19706,1.6438,0.5912,2.1439,0.39412,0.50004,0.86888,0.86622,1.4243,1.0985,0.55538,0.2323,1.1466,0.37544,1.7736,0.42942,0.62698,0.054,1.1734,0.0809,1.6391,0.0809,0.53679,0,1.0739-0.0448,1.6112-0.13415,0.53733-0.0894,1.0034-0.17013,1.398-0.24211zm0-5.5212c-0.00003-0.85829-0.14323-1.5555-0.42967-2.0915-0.28646-0.53601-0.68059-0.9559-1.1824-1.2597-0.50184-0.30372-1.1198-0.50901-1.854-0.61592-0.73416-0.10681-1.5495-0.16031-2.446-0.16032-1.934,0.00001-3.9938,0.37519-6.1793,1.1255-0.50182-0.92917-0.87789-1.8047-1.1283-2.6265-0.25035-0.82175-0.37554-1.8047-0.37554-2.9488,1.5754-0.53655,3.1514-0.92972,4.7279-1.1795,1.5765-0.24972,3.0453-0.3746,4.4065-0.37462,3.7259,0.00002,6.6368,0.89352,8.7326,2.6805s3.1437,4.6458,3.1437,8.5763v16.081c-1.254,0.39371-2.7767,0.76915-4.568,1.1263-1.7914,0.35717-3.8153,0.53576-6.0718,0.53576-1.8269,0-3.5018-0.16085-5.0248-0.4826-1.523-0.32172-2.8305-0.85775-3.9227-1.6081-1.0922-0.75033-1.934-1.7153-2.5255-2.8948-0.59148-1.1795-0.88722-2.6265-0.88721-4.3409-0.00001-1.7155,0.36733-3.154,1.102-4.3156,0.73468-1.1615,1.6842-2.0907,2.8486-2.7876,1.1644-0.69689,2.4629-1.1972,3.8957-1.501,1.4327-0.30373,2.8658-0.4556,4.2991-0.45561,1.0386,0.00001,2.1849,0.0535,3.439,0.16032z" fill="#4d8bd2"/>
  <path id="path3093" d="m250.75,484.06c-0.64189-0.10763-1.2748-0.17921-1.8988-0.21461-0.62395-0.0353-1.2389-0.053-1.845-0.0531-0.60599,0.00004-1.2297,0.0177-1.8711,0.0531-0.64133,0.0354-1.283,0.10695-1.9249,0.21461v38.182c1.6755,0.49939,3.3777,0.88263,5.1065,1.1497,1.7288,0.26711,3.8232,0.40065,6.2832,0.40065,1.8898,0,3.6994-0.2584,5.4288-0.77518,1.7294-0.51681,3.2534-1.3366,4.572-2.4594s2.3615-2.5755,3.1285-4.3582c0.76703-1.7827,1.1505-3.9578,1.1505-6.5255,0-2.0313-0.32992-3.9472-0.98978-5.7479-0.65987-1.8006-1.6048-3.3605-2.8348-4.6797s-2.7183-2.362-4.4651-3.1285c-1.7468-0.76647-3.6896-1.1497-5.8286-1.1497-0.64189,0.00002-1.3105,0.027-2.0057,0.0807-0.69522,0.0539-1.3638,0.16947-2.0057,0.34679zm0,17.165c0.71374-0.17841,1.2934-0.29428,1.7389-0.34761,0.44556-0.0534,1.0067-0.0799,1.6834-0.0799,1.1772,0.00003,2.2024,0.24074,3.0755,0.72216,0.87313,0.48146,1.595,1.1231,2.1656,1.9249,0.57067,0.80188,0.98954,1.7465,1.2566,2.8339,0.26712,1.0875,0.40066,2.2192,0.40066,3.3954,0,1.4623-0.17816,2.7015-0.53447,3.7177s-0.84645,1.8273-1.4704,2.4333-1.3638,1.0426-2.2195,1.3097-1.7824,0.40066-2.7801,0.40065c-0.60599,0.00001-1.1587-0.0266-1.6581-0.0799-0.49938-0.0534-1.0521-0.16918-1.6581-0.34762z" fill="#4d8bd2"/>
  <path id="path3183-5" d="m300.21,496.39c0.21403-0.0347,0.49028-0.061,0.82874-0.079,0.33845-0.0179,0.68533-0.0268,1.0406-0.0268,0.28468,0.00003,0.63181,0.009,1.0414,0.0268,0.40961,0.018,0.72144,0.0443,0.93551,0.079l6.0335,23.179,6.7294-23.179c0.28465-0.0347,0.59621-0.061,0.93468-0.079,0.33844-0.0179,0.70324-0.0268,1.0944-0.0268,0.28573,0.00003,0.57992,0.00003,0.88254,0,0.30257,0.00003,0.5962,0.0354,0.8809,0.10588l6.7278,22.858,6.0351-22.858c0.21402-0.0347,0.47234-0.061,0.77497-0.079,0.30256-0.0179,0.59619-0.0268,0.88091-0.0268,0.28463,0.00003,0.60515,0.009,0.96157,0.0268,0.35634,0.018,0.64102,0.0443,0.85401,0.079l-7.8507,27.237c-0.64107,0.10641-1.2642,0.15971-1.8694,0.15971-0.67585,0-1.2984-0.0533-1.8678-0.15971l-6.5697-22.537-6.8891,22.537c-0.64107,0.10641-1.2642,0.15971-1.8694,0.15971-0.67583,0-1.299-0.0533-1.8694-0.15971z" fill="#87cdf9"/>
  <path id="path3185-0" d="m344.21,483.9c0.21608-0.0363,0.51377-0.0636,0.89304-0.0817,0.37924-0.0182,0.67748-0.0272,0.89468-0.0274,0.18081,0.00004,0.46994,0.009,0.8674,0.0274,0.39745,0.0182,0.70422,0.0455,0.92032,0.0817v17.103c0.36161-0.64968,0.83155-1.3082,1.4098-1.9756,0.57826-0.66731,1.2467-1.2716,2.0052-1.8129,0.75853-0.54121,1.6163-0.97426,2.5732-1.2991,0.95697-0.32484,2.0137-0.48726,3.1703-0.48728,3.1796,0.00002,5.5189,0.94732,7.0177,2.8419s2.2483,4.556,2.2483,7.984v17.428c-0.21611,0.0363-0.51378,0.0635-0.89302,0.0817-0.37929,0.0182-0.67752,0.0272-0.89469,0.0272-0.18083,0-0.46996-0.009-0.8674-0.0272-0.39747-0.0182-0.70424-0.0455-0.92031-0.0817v-16.346c-0.00003-3.0668-0.50581-5.2679-1.5173-6.6031-1.0116-1.3352-2.4749-2.0028-4.3899-2.0028-1.2646,0.00003-2.4479,0.23458-3.5498,0.70366-1.102,0.46915-2.0504,1.1637-2.8453,2.0838-0.79492,0.92009-1.4181,2.0747-1.8696,3.4638-0.45149,1.3892-0.67723,2.9862-0.67722,4.7911v13.91c-0.2161,0.0363-0.51378,0.0635-0.89304,0.0817s-0.6775,0.0272-0.89468,0.0272c-0.18082,0-0.46996-0.009-0.8674-0.0272-0.39746-0.0182-0.70424-0.0455-0.92032-0.0817z" fill="#87cdf9"/>
  <path id="path3187-2" d="m376.95,510.07c0,3.6312,0.83661,6.3013,2.5099,8.0104,1.6732,1.7091,4.1831,2.5636,7.5296,2.5636,1.3527,0,2.6076-0.11575,3.7648-0.34714,1.1571-0.23142,2.2877-0.54326,3.3916-0.9355,0.17816,0.39224,0.32078,0.87303,0.42782,1.4424,0.10707,0.56935,0.1779,1.0854,0.21269,1.5483-1.0322,0.46286-2.2426,0.81896-3.6312,1.0683-1.3886,0.24936-2.9016,0.37403-4.539,0.37403-2.3502,0-4.3708-0.34714-6.062-1.0414-1.6912-0.69429-3.0798-1.6643-4.1658-2.91s-1.887-2.7321-2.4031-4.4591c-0.51611-1.727-0.77415-3.6233-0.77415-5.6888,0-1.9938,0.24039-3.8629,0.72118-5.6073,0.48078-1.7444,1.2106-3.2753,2.1896-4.5928,0.97895-1.3174,2.2339-2.3499,3.7648-3.0974s3.3644-1.1213,5.5005-1.1213c1.7808,0.00002,3.3652,0.30262,4.7533,0.90779,1.388,0.60522,2.5539,1.4508,3.4975,2.5368,0.94363,1.086,1.6558,2.3855,2.1366,3.8985,0.48077,1.513,0.72116,3.1599,0.72118,4.9407-0.00002,0.32054-0.009,0.72989-0.0268,1.228-0.018,0.49819-0.0449,0.92545-0.0806,1.2818zm16.021-2.9369c-0.00001-1.1039-0.14235-2.1899-0.427-3.258-0.28469-1.068-0.72963-2.0027-1.3348-2.804-0.60521-0.80129-1.3886-1.451-2.3502-1.9492-0.9616-0.49815-2.1188-0.74724-3.4715-0.74727-2.4925,0.00003-4.4328,0.76549-5.8208,2.2964s-2.225,3.685-2.5107,6.4621z" fill="#87cdf9"/>
  <path id="path3189-8" d="m404.21,496.45c0.28466-0.0347,0.56036-0.061,0.82712-0.079,0.26673-0.0179,0.52505-0.0268,0.77496-0.0268,0.28466,0.00003,0.55168,0.009,0.80105,0.0268,0.24935,0.018,0.51636,0.0443,0.80103,0.079,0.0706,0.64108,0.1239,1.3978,0.15973,2.2703,0.0358,0.87251,0.0538,1.6646,0.0538,2.3762,0.71168-1.3168,1.7083-2.4292,2.9898-3.337,1.2816-0.90776,2.973-1.3617,5.0744-1.3617,0.17817,0.00002,0.36506,0.00002,0.56064,0,0.19557,0.00002,0.41776,0.0173,0.66659,0.0522,0.10761,0.60522,0.16134,1.1751,0.16135,1.7096-0.00001,0.56937-0.0538,1.1213-0.16135,1.6559-0.28469-0.0358-0.50715-0.0538-0.6674-0.0538-0.16027,0.00003-0.3295,0.00003-0.50768,0-2.4208,0.00003-4.361,0.76548-5.8208,2.2964s-2.1896,4.0767-2.1896,7.6372v13.992c-0.21296,0.0358-0.50633,0.0628-0.88008,0.0806-0.37377,0.0179-0.66769,0.0268-0.88172,0.0268-0.1782,0-0.46314-0.009-0.85483-0.0268-0.3917-0.0179-0.69402-0.0449-0.90697-0.0806z" fill="#87cdf9"/>
  <path id="path3191-6" d="m424.95,510.07c0,3.6312,0.83662,6.3013,2.5099,8.0104,1.6732,1.7091,4.1831,2.5636,7.5296,2.5636,1.3527,0,2.6076-0.11575,3.7648-0.34714,1.1571-0.23142,2.2877-0.54326,3.3916-0.9355,0.17815,0.39224,0.32077,0.87303,0.42781,1.4424,0.10708,0.56935,0.1779,1.0854,0.2127,1.5483-1.0322,0.46286-2.2426,0.81896-3.6312,1.0683-1.3886,0.24936-2.9016,0.37403-4.539,0.37403-2.3502,0-4.3708-0.34714-6.062-1.0414-1.6912-0.69429-3.0798-1.6643-4.1658-2.91s-1.887-2.7321-2.4031-4.4591c-0.51611-1.727-0.77415-3.6233-0.77415-5.6888,0-1.9938,0.24039-3.8629,0.72119-5.6073,0.48077-1.7444,1.2106-3.2753,2.1896-4.5928,0.97896-1.3174,2.2339-2.3499,3.7648-3.0974s3.3644-1.1213,5.5005-1.1213c1.7808,0.00002,3.3652,0.30262,4.7533,0.90779,1.388,0.60522,2.5539,1.4508,3.4975,2.5368,0.94363,1.086,1.6558,2.3855,2.1367,3.8985,0.48076,1.513,0.72115,3.1599,0.72118,4.9407-0.00003,0.32054-0.009,0.72989-0.0268,1.228-0.018,0.49819-0.0449,0.92545-0.0806,1.2818zm16.021-2.9369c-0.00001-1.1039-0.14235-2.1899-0.427-3.258-0.28469-1.068-0.72963-2.0027-1.3348-2.804-0.60521-0.80129-1.3886-1.451-2.3502-1.9492-0.9616-0.49815-2.1188-0.74724-3.4715-0.74727-2.4925,0.00003-4.4328,0.76549-5.8208,2.2964s-2.2249,3.685-2.5107,6.4621z" fill="#87cdf9"/>
 </g>
</svg>

